<?xml version="1.0" standalone="no"?>
<!DOCTYPE svg PUBLIC "-//W3C//DTD SVG 20010904//EN"
 "http://www.w3.org/TR/2001/REC-SVG-20010904/DTD/svg10.dtd">
<svg version="1.0" xmlns="http://www.w3.org/2000/svg"
 width="1650.000000pt" height="1694.000000pt" viewBox="0 0 1650.000000 1694.000000"
 preserveAspectRatio="xMidYMid meet">

<g transform="translate(0.000000,1694.000000) scale(0.100000,-0.100000)"
fill="#000000" stroke="none">
<path d="M0 8470 l0 -8470 8250 0 8250 0 0 8470 0 8470 -8250 0 -8250 0 0
-8470z m4283 8346 c168 -126 361 -220 570 -278 l120 -32 -7 -421 c-4 -231 -10
-423 -13 -428 -3 -5 4 -17 16 -28 26 -24 26 -31 3 -46 -17 -10 -19 -34 -26
-280 l-7 -268 -36 -54 c-126 -184 -344 -353 -567 -440 l-102 -40 -73 15 c-167
35 -351 119 -471 215 -52 43 -59 46 -73 31 -13 -13 -19 -13 -32 -2 -14 12 -14
15 -1 28 13 13 7 24 -53 93 -37 42 -74 92 -84 111 -12 25 -33 208 -87 763 -38
402 -70 735 -70 741 0 7 27 14 63 18 165 19 369 79 512 151 95 49 227 134 285
184 19 17 38 30 42 31 3 0 45 -29 91 -64z m7512 -282 c175 -163 386 -251 627
-261 l128 -6 -5 -96 c-3 -53 -10 -197 -15 -321 -23 -473 -64 -844 -112 -985
-50 -149 -169 -275 -343 -362 -38 -20 -72 -37 -74 -39 -3 -3 24 -33 59 -69 54
-55 61 -66 50 -80 -11 -13 -22 -6 -86 55 -41 38 -78 70 -84 70 -5 0 -45 -10
-87 -21 -95 -26 -171 -22 -293 16 -213 67 -389 199 -473 354 -36 66 -74 227
-89 381 -2 17 -9 25 -23 25 -27 0 -175 87 -175 103 0 29 33 21 106 -23 42 -25
78 -44 80 -42 2 2 0 48 -6 103 -17 169 -39 519 -46 730 l-7 201 124 6 c242 10
447 96 624 260 33 31 60 56 60 57 0 0 27 -25 60 -56z m-4042 -350 c27 -5 37
-11 37 -25 0 -17 -9 -19 -100 -19 l-100 0 0 25 c0 24 2 25 63 25 34 0 79 -3
100 -6z m-443 -23 c0 -20 -49 -31 -146 -31 -47 0 -54 3 -54 19 0 21 20 25 148
29 45 2 52 -1 52 -17z m928 -7 c23 -4 32 -10 32 -25 0 -18 -5 -19 -87 -13 -98
7 -125 17 -116 40 5 13 17 14 72 9 36 -3 81 -8 99 -11z m-1408 -34 c0 -20 -2
-21 -127 -38 -67 -9 -73 -8 -73 18 0 14 15 19 73 27 117 16 127 16 127 -7z
m1914 -40 c5 -5 6 -15 3 -23 -4 -12 -19 -12 -100 2 -101 17 -113 22 -104 44 5
12 18 12 99 0 51 -8 97 -19 102 -23z m-2386 -37 c-2 -13 -24 -22 -78 -35 -94
-22 -116 -22 -124 -3 -6 18 -3 19 79 39 87 21 127 20 123 -1z m2770 -38 c80
-17 107 -35 86 -55 -13 -12 -199 33 -198 48 2 30 5 34 17 29 6 -2 50 -12 95
-22z m-3238 -74 c0 -14 -17 -23 -87 -42 -106 -29 -108 -29 -108 -4 0 16 15 24
75 41 96 29 120 30 120 5z m3705 -59 c55 -19 81 -33 83 -44 5 -24 -14 -23
-114 8 -66 21 -84 30 -84 45 0 25 17 23 115 -9z m-4167 -83 c-2 -17 -22 -29
-88 -54 -47 -18 -88 -30 -92 -26 -22 21 -7 34 72 66 102 40 112 42 108 14z
m4612 -81 c80 -31 102 -50 83 -69 -6 -6 -40 3 -94 26 -92 40 -105 48 -95 64
10 16 16 15 106 -21z m439 -198 c87 -43 94 -49 81 -70 -7 -12 -25 -7 -100 30
-49 24 -90 45 -90 46 0 12 14 34 21 34 5 0 45 -18 88 -40z m-2339 -335 c80 -8
206 -25 280 -36 1383 -209 2640 -949 3501 -2062 428 -553 741 -1177 938 -1867
209 -735 256 -1573 130 -2350 -115 -718 -374 -1405 -763 -2026 -651 -1039
-1651 -1841 -2806 -2248 -103 -37 -144 -56 -143 -66 1 -8 13 -76 27 -150 40
-223 76 -544 76 -692 0 -96 2 -100 53 -82 45 16 67 13 67 -10 0 -9 -21 -21
-57 -31 l-56 -16 6 -167 c9 -238 30 -336 222 -1037 93 -339 355 -1418 355
-1463 0 -16 -83 -17 -1537 -15 -846 2 -1540 4 -1544 5 -4 2 -19 575 -33 1273
-33 1591 -41 1823 -66 2017 -41 321 -116 534 -252 720 -55 76 -165 181 -179
173 -19 -12 -7 -32 62 -100 204 -202 305 -473 349 -945 11 -118 72 -2855 68
-3029 l-3 -111 -1074 0 c-1138 0 -1090 -2 -1091 45 0 11 -7 90 -15 175 -57
601 -70 1527 -29 2125 17 255 54 655 69 737 4 24 -1 31 -35 48 -42 21 -45 26
-31 48 7 12 14 11 40 -2 24 -13 32 -14 36 -4 2 7 16 92 30 188 31 204 84 475
126 643 16 65 29 120 29 121 0 2 -51 34 -112 71 -653 393 -1240 944 -1671
1567 -552 798 -872 1690 -958 2673 -16 181 -16 700 0 880 54 613 192 1172 421
1710 54 129 211 441 285 570 555 964 1376 1727 2378 2210 635 306 1261 468
2047 529 122 9 725 -4 860 -19z m-4830 -675 c-67 -61 -77 -67 -90 -54 -13 14
-7 23 60 84 67 62 77 67 90 54 13 -14 7 -23 -60 -84z m-345 -334 c-53 -59 -71
-73 -82 -65 -7 6 -13 15 -13 19 0 4 30 40 67 79 58 64 68 71 81 57 13 -13 7
-23 -53 -90z m9457 -149 c27 -33 29 -40 17 -53 -13 -12 -24 -4 -83 61 -57 64
-66 78 -55 91 11 13 17 10 51 -23 22 -21 53 -55 70 -76z m-9723 -121 c9 -11
-1 -29 -50 -87 -34 -41 -65 -75 -69 -77 -4 -1 -12 4 -19 11 -9 12 1 30 51 91
35 41 66 76 69 76 4 0 12 -6 18 -14z m10000 -213 c45 -58 57 -80 49 -90 -6 -7
-14 -13 -18 -13 -16 0 -122 150 -116 165 10 27 24 16 85 -62z m-10293 -167 c6
-16 -95 -165 -113 -166 -29 -1 -21 28 28 101 53 77 74 93 85 65z m10574 -225
c49 -76 56 -101 26 -101 -16 0 -118 158 -110 171 13 22 35 4 84 -70z m-10844
-175 c5 -13 -84 -176 -96 -176 -3 0 -11 4 -19 9 -12 7 -9 18 14 58 73 125 88
142 101 109z m11093 -233 c45 -79 50 -103 24 -103 -12 0 -32 26 -58 73 -48 86
-51 97 -34 108 18 10 20 8 68 -78z m-11331 -181 c9 -6 1 -31 -34 -100 -41 -81
-49 -90 -65 -81 -18 9 -16 15 26 99 46 91 50 96 73 82z m11550 -249 c41 -86
44 -103 16 -103 -17 0 -98 165 -89 181 15 23 35 2 73 -78z m-11748 -191 c0 -4
-16 -48 -36 -98 -30 -77 -39 -91 -55 -87 -24 7 -24 7 7 84 41 100 52 119 69
113 8 -4 15 -9 15 -12z m11935 -252 c23 -61 30 -89 22 -98 -5 -7 -14 -11 -20
-9 -12 4 -78 178 -71 189 15 24 39 -4 69 -82z m-12105 -199 c0 -16 -62 -191
-68 -191 -31 1 -31 19 -2 112 27 85 32 95 50 91 11 -3 20 -8 20 -12z m12249
-231 c35 -115 37 -130 13 -130 -11 0 -23 8 -26 18 -2 9 -14 50 -26 90 -11 40
-18 77 -15 82 16 26 34 5 54 -60z m-12389 -227 c0 -5 -10 -50 -22 -100 -18
-75 -25 -93 -40 -93 -23 0 -23 12 3 115 17 69 25 85 40 85 11 0 19 -3 19 -7z
m13402 -136 c99 -48 175 -123 222 -217 20 -40 36 -79 36 -86 0 -7 4 -24 9 -37
9 -24 10 -24 63 -10 81 22 209 13 278 -19 83 -39 135 -89 175 -171 44 -92 59
-181 45 -278 -6 -40 -16 -84 -23 -98 l-12 -26 -491 -3 -491 -2 -21 -50 -21
-50 140 0 c76 0 139 -3 139 -7 0 -5 -96 -121 -213 -259 -116 -137 -225 -265
-240 -283 -15 -19 -30 -32 -32 -29 -2 2 38 98 90 213 52 115 95 211 95 212 0
2 -58 3 -129 3 -72 0 -132 3 -134 8 -2 4 10 59 28 122 18 63 31 116 30 118 -2
2 -160 3 -352 3 -192 0 -355 4 -363 9 -10 6 -15 36 -18 104 -7 153 41 274 143
364 82 72 216 116 334 110 l43 -3 14 54 c41 156 164 282 329 337 26 9 78 13
146 11 99 -2 110 -4 181 -40z m-890 -112 c23 -96 23 -125 0 -125 -16 0 -22 17
-39 93 -11 50 -18 96 -15 100 2 4 11 7 20 5 12 -2 22 -25 34 -73z m128 -907
c0 -18 3 -63 7 -100 5 -64 5 -68 -14 -68 -25 0 -33 33 -33 131 0 62 2 69 20
69 16 0 20 -7 20 -32z m13 -556 c-1 -57 -4 -106 -7 -109 -3 -3 -12 -3 -21 0
-12 5 -15 26 -15 112 0 105 0 106 23 103 21 -3 22 -6 20 -106z m-12849 -200
c2 -4 6 -48 7 -97 2 -85 1 -90 -19 -93 -20 -3 -22 1 -22 51 0 30 -3 75 -6 101
-6 42 -5 46 14 46 11 0 23 -4 26 -8z m12831 -239 c-14 -140 -15 -143 -36 -143
-19 0 -20 5 -14 88 8 108 9 112 35 112 20 0 21 -4 15 -57z m-12791 -245 c12
-57 24 -172 20 -180 -10 -16 -34 -7 -39 15 -17 77 -23 172 -12 179 20 12 26 9
31 -14z m12735 -205 c0 -16 -6 -59 -12 -98 -11 -62 -15 -70 -36 -73 -20 -3
-23 0 -18 20 3 12 11 58 18 101 10 64 15 77 30 77 14 0 19 -7 18 -27z m-12645
-335 c24 -113 24 -113 1 -113 -17 0 -23 12 -37 75 -22 102 -22 120 1 120 15 0
21 -15 35 -82z m12556 -130 c0 -13 -4 -39 -9 -58 -6 -19 -15 -54 -21 -77 -8
-32 -16 -43 -30 -43 -25 0 -25 -4 2 108 18 74 25 92 40 92 12 0 18 -7 18 -22z
m-12436 -347 c22 -75 25 -96 14 -102 -22 -14 -27 -10 -37 29 -6 20 -17 60 -26
87 -19 64 -19 73 3 77 9 3 18 4 18 4 1 -1 14 -43 28 -95z m12303 -99 c16 -10
-34 -181 -55 -189 -31 -12 -31 15 -1 105 31 93 34 98 56 84z m-12151 -357 c33
-89 35 -109 7 -103 -22 4 -86 180 -70 190 21 14 29 4 63 -87z m12004 -104 c0
-5 -16 -48 -36 -95 -27 -65 -41 -86 -55 -86 -25 0 -24 9 7 83 15 34 30 72 35
85 8 21 49 32 49 13z m-11820 -337 c39 -84 42 -104 16 -104 -14 0 -98 169 -90
182 15 24 38 1 74 -78z m11623 -100 c7 -7 -80 -184 -91 -184 -4 0 -13 4 -20 9
-10 6 -3 27 30 94 39 79 61 101 81 81z m-10891 -36 c80 -37 141 -98 183 -181
l35 -70 0 -342 0 -342 40 -28 c56 -39 149 -141 188 -207 61 -103 85 -189 90
-323 5 -145 -11 -222 -69 -344 -33 -68 -58 -101 -128 -171 -47 -47 -112 -101
-143 -118 -156 -86 -347 -114 -508 -73 -292 73 -492 296 -532 595 -32 237 91
514 285 646 l37 25 0 284 0 284 -35 64 c-19 35 -35 70 -35 78 0 26 30 16 50
-17 11 -18 20 -26 20 -18 0 33 54 128 98 173 82 84 168 118 287 114 60 -2 94
-10 137 -29z m11438 -388 c19 -19 20 -33 20 -234 l0 -214 69 0 c148 1 251 -99
252 -243 1 -76 -11 -109 -56 -165 -48 -58 -108 -84 -195 -84 l-70 0 0 -215 c0
-202 -1 -216 -20 -235 -19 -19 -33 -20 -237 -20 l-218 0 0 -84 c0 -78 -2 -88
-30 -127 -17 -24 -50 -57 -73 -73 -55 -39 -157 -48 -227 -22 -98 38 -162 143
-153 252 l5 54 -211 0 c-175 0 -215 3 -234 16 -22 15 -22 19 -22 240 0 216 -5
249 -29 207 -9 -17 -11 -17 -28 -1 -16 17 -15 20 20 56 l37 38 0 421 0 422 22
15 c20 14 102 16 690 16 655 0 668 0 688 -20z m-1635 -1160 c9 -14 -116 -151
-134 -148 -30 6 -20 28 40 92 59 64 81 77 94 56z m-9090 -339 c-14 -14 -23 -8
-87 56 -63 63 -70 74 -58 88 12 14 21 8 87 -57 65 -64 71 -74 58 -87z m8751
-3 c7 -11 -121 -137 -141 -138 -6 0 -16 5 -22 11 -8 8 8 28 60 75 73 65 90 73
103 52z m-8450 -230 c41 -33 73 -66 71 -72 -8 -25 -36 -13 -105 45 -60 49 -71
63 -61 75 6 8 14 14 16 14 3 0 38 -28 79 -62z m8083 -81 c9 -11 -6 -27 -70
-76 -74 -57 -83 -61 -97 -47 -9 9 -14 17 -11 19 85 67 153 117 159 117 4 0 13
-6 19 -13z m-7697 -213 c71 -50 78 -58 65 -72 -13 -13 -24 -9 -91 38 -83 57
-90 65 -81 80 11 17 25 11 107 -46z m7308 -69 c7 -9 11 -17 9 -19 -23 -19
-160 -106 -167 -106 -17 0 -24 33 -8 42 8 4 43 28 77 52 75 51 73 50 89 31z
m-6830 -244 c0 -3 -4 -12 -9 -20 -7 -11 -27 -3 -95 38 -47 29 -86 56 -86 60 0
4 5 12 11 18 8 8 34 -3 95 -39 46 -28 84 -53 84 -57z m6425 -11 c10 -17 -8
-32 -88 -75 -65 -34 -77 -38 -91 -26 -15 13 -8 19 66 62 86 51 103 56 113 39z
m-427 -233 c2 -11 -22 -27 -84 -56 -85 -40 -104 -43 -104 -16 0 14 156 95 175
91 6 -2 11 -10 13 -19z m-439 -186 c9 -17 1 -22 -86 -55 -75 -28 -98 -34 -105
-24 -14 22 -5 29 82 63 104 40 97 39 109 16z"/>
<path d="M7370 15154 c-799 -44 -1461 -211 -2136 -538 -564 -274 -1016 -597
-1470 -1050 -214 -215 -338 -357 -501 -572 -625 -828 -997 -1820 -1074 -2862
-17 -239 -6 -798 20 -1013 183 -1504 937 -2816 2136 -3719 193 -145 522 -360
551 -360 6 0 16 24 23 53 19 76 129 410 162 495 16 40 29 78 29 86 0 7 -48 44
-106 81 -438 281 -873 687 -1199 1120 -519 691 -824 1450 -931 2325 -22 180
-30 695 -15 901 84 1103 553 2145 1321 2933 412 423 816 717 1335 971 901 441
1903 582 2905 410 868 -150 1710 -562 2360 -1154 700 -637 1185 -1438 1416
-2338 265 -1035 175 -2136 -255 -3108 -240 -541 -560 -1005 -990 -1436 -394
-394 -804 -687 -1289 -921 -151 -73 -414 -182 -539 -222 -29 -10 -53 -21 -53
-25 0 -5 18 -57 40 -116 37 -98 128 -402 145 -483 3 -17 10 -32 15 -32 14 0
209 70 334 120 548 219 1057 527 1512 914 165 140 469 445 605 606 330 389
616 839 815 1281 440 979 582 2057 409 3118 -207 1270 -871 2435 -1861 3268
-261 219 -535 408 -867 597 -82 47 -357 182 -477 233 -522 227 -1113 374
-1699 423 -133 11 -563 20 -671 14z"/>
<path d="M7415 12856 c-642 -106 -1121 -584 -1222 -1220 -23 -147 -14 -404 20
-547 132 -559 563 -979 1130 -1101 137 -29 417 -32 552 -5 602 121 1040 556
1166 1157 29 138 31 391 5 525 -116 602 -549 1049 -1141 1177 -117 25 -395 33
-510 14z"/>
</g>
</svg>
